<svg xmlns="http://www.w3.org/2000/svg" xmlns:xlink="http://www.w3.org/1999/xlink" version="1.1" x="0px" y="0px" viewBox="0 0 32 40"><g><path d="M29.409,28.588 L29.416,30.588 L2.4,30.69 L2.392,28.69 L29.409,28.588 z" fill="#000000"/></g><g display="none"><path d="M17.943,17.421 C19.089,17.421 20.019,18.35 20.019,19.497 C20.019,20.644 19.089,21.573 17.943,21.573 C16.796,21.573 15.866,20.644 15.866,19.497 C15.866,18.35 16.796,17.421 17.943,17.421 z M17.943,18.421 C17.348,18.421 16.866,18.903 16.866,19.497 C16.866,20.092 17.348,20.573 17.943,20.573 C18.537,20.573 19.019,20.092 19.019,19.497 C19.019,18.903 18.537,18.421 17.943,18.421 z" fill="#000000"/><path d="M23.83,11.777 C24.977,11.777 25.907,12.706 25.907,13.853 C25.907,15 24.977,15.929 23.83,15.929 C22.684,15.929 21.754,15 21.754,13.853 C21.754,12.706 22.684,11.777 23.83,11.777 z M23.83,12.777 C23.236,12.777 22.754,13.259 22.754,13.853 C22.754,14.447 23.236,14.929 23.83,14.929 C24.425,14.929 24.907,14.447 24.907,13.853 C24.907,13.259 24.425,12.777 23.83,12.777 z" fill="#000000"/><path d="M27.836,5.195 C28.983,5.195 29.912,6.124 29.912,7.271 C29.912,8.418 28.983,9.347 27.836,9.347 C26.689,9.347 25.76,8.418 25.76,7.271 C25.76,6.124 26.689,5.195 27.836,5.195 z M27.836,6.195 C27.242,6.195 26.76,6.677 26.76,7.271 C26.76,7.865 27.242,8.347 27.836,8.347 C28.431,8.347 28.912,7.865 28.912,7.271 C28.912,6.677 28.431,6.195 27.836,6.195 z" fill="#000000"/><path d="M3.972,21.291 C5.119,21.291 6.049,22.221 6.049,23.367 C6.049,24.514 5.119,25.444 3.972,25.444 C2.826,25.444 1.896,24.514 1.896,23.367 C1.896,22.221 2.826,21.291 3.972,21.291 z M3.972,22.291 C3.378,22.291 2.896,22.773 2.896,23.367 C2.896,23.962 3.378,24.444 3.972,24.444 C4.567,24.444 5.049,23.962 5.049,23.367 C5.049,22.773 4.567,22.291 3.972,22.291 z" fill="#000000"/><path d="M11.051,20.573 C12.198,20.573 13.127,21.503 13.127,22.65 C13.127,23.797 12.198,24.726 11.051,24.726 C9.904,24.726 8.975,23.797 8.975,22.65 C8.975,21.503 9.904,20.573 11.051,20.573 z M11.051,21.573 C10.457,21.573 9.975,22.055 9.975,22.65 C9.975,23.244 10.457,23.726 11.051,23.726 C11.646,23.726 12.127,23.244 12.127,22.65 C12.127,22.055 11.646,21.573 11.051,21.573 z" fill="#000000"/><path d="M9.46,22.432 L9.538,23.429 L5.776,23.724 L5.698,22.727 L9.46,22.432 z" fill="#000000"/><path d="M16.335,20.018 L16.73,20.936 L12.849,22.605 L12.454,21.686 L16.335,20.018 z" fill="#000000"/><path d="M22.3,14.854 L23.001,15.566 L19.637,18.881 L18.935,18.168 L22.3,14.854 z" fill="#000000"/><path d="M26.833,8.314 L27.693,8.824 L25.403,12.684 L24.543,12.174 L26.833,8.314 z" fill="#000000"/></g><g display="none"><path d="M13.866,17.619 C15.012,17.619 15.942,18.548 15.942,19.695 C15.942,20.842 15.012,21.771 13.866,21.771 C12.719,21.771 11.789,20.842 11.789,19.695 C11.789,18.548 12.719,17.619 13.866,17.619 z M13.866,18.619 C13.271,18.619 12.789,19.101 12.789,19.695 C12.789,20.29 13.271,20.771 13.866,20.771 C14.46,20.771 14.942,20.29 14.942,19.695 C14.942,19.101 14.46,18.619 13.866,18.619 z" fill="#000000"/><path d="M7.978,11.975 C9.125,11.975 10.054,12.904 10.054,14.051 C10.054,15.198 9.125,16.127 7.978,16.127 C6.831,16.127 5.902,15.198 5.902,14.051 C5.902,12.904 6.831,11.975 7.978,11.975 z M7.978,12.975 C7.384,12.975 6.902,13.457 6.902,14.051 C6.902,14.645 7.384,15.127 7.978,15.127 C8.572,15.127 9.054,14.645 9.054,14.051 C9.054,13.457 8.572,12.975 7.978,12.975 z" fill="#000000"/><path d="M3.972,5.393 C5.119,5.393 6.049,6.322 6.049,7.469 C6.049,8.616 5.119,9.545 3.972,9.545 C2.826,9.545 1.896,8.616 1.896,7.469 C1.896,6.322 2.826,5.393 3.972,5.393 z M3.972,6.393 C3.378,6.393 2.896,6.875 2.896,7.469 C2.896,8.063 3.378,8.545 3.972,8.545 C4.567,8.545 5.049,8.063 5.049,7.469 C5.049,6.875 4.567,6.393 3.972,6.393 z" fill="#000000"/><path d="M27.836,21.489 C28.983,21.489 29.912,22.419 29.912,23.565 C29.912,24.712 28.983,25.642 27.836,25.642 C26.689,25.642 25.76,24.712 25.76,23.565 C25.76,22.419 26.689,21.489 27.836,21.489 z M27.836,22.489 C27.242,22.489 26.76,22.971 26.76,23.565 C26.76,24.16 27.242,24.642 27.836,24.642 C28.431,24.642 28.912,24.16 28.912,23.565 C28.912,22.971 28.431,22.489 27.836,22.489 z" fill="#000000"/><path d="M20.757,20.771 C21.904,20.771 22.834,21.701 22.833,22.848 C22.834,23.994 21.904,24.924 20.757,24.924 C19.61,24.924 18.681,23.994 18.681,22.848 C18.681,21.701 19.61,20.771 20.757,20.771 z M20.757,21.771 C20.163,21.771 19.681,22.253 19.681,22.848 C19.681,23.442 20.163,23.924 20.757,23.924 C21.352,23.924 21.834,23.442 21.833,22.848 C21.834,22.253 21.352,21.771 20.757,21.771 z" fill="#000000"/><path d="M22.536,22.63 L26.299,22.925 L26.221,23.922 L22.458,23.627 L22.536,22.63 z" fill="#000000"/><path d="M15.661,20.215 L19.542,21.884 L19.147,22.803 L15.266,21.134 L15.661,20.215 z" fill="#000000"/><path d="M9.636,15.05 L12.744,18.093 L12.044,18.808 L8.937,15.765 L9.636,15.05 z" fill="#000000"/><path d="M5.103,8.511 L7.394,12.372 L6.534,12.882 L4.243,9.022 L5.103,8.511 z" fill="#000000"/></g><g display="none"><path d="M8.872,11.155 L8.872,25.852 L3.679,25.852 L3.679,11.155 L8.872,11.155 z M7.872,12.155 L4.679,12.155 L4.679,24.852 L7.872,24.852 L7.872,12.155 z" fill="#000000"/><path d="M28.321,14.689 L28.321,25.852 L23.128,25.852 L23.128,14.689 L28.321,14.689 z M27.321,15.689 L24.128,15.689 L24.128,24.852 L27.321,24.852 L27.321,15.689 z" fill="#000000"/><path d="M15.402,4.088 L15.402,25.852 L10.208,25.852 L10.208,4.088 L15.402,4.088 z M14.402,5.088 L11.208,5.088 L11.208,24.852 L14.402,24.852 L14.402,5.088 z" fill="#000000"/><path d="M21.844,9.601 L21.844,25.852 L16.651,25.852 L16.651,9.601 L21.844,9.601 z M20.844,10.601 L17.651,10.601 L17.651,24.852 L20.844,24.852 L20.844,10.601 z" fill="#000000"/></g><g display="none"><path d="M8.872,17.207 L8.872,25.852 L3.679,25.852 L3.679,17.207 L8.872,17.207 z M7.872,18.207 L4.679,18.207 L4.679,24.852 L7.872,24.852 L7.872,18.207 z" fill="#000000"/><path d="M28.321,19.387 L28.321,25.852 L23.128,25.852 L23.128,19.387 L28.321,19.387 z M27.321,20.387 L24.128,20.387 L24.128,24.852 L27.321,24.852 L27.321,20.387 z" fill="#000000"/><path d="M15.402,11.254 L15.402,25.852 L10.208,25.852 L10.208,11.254 L15.402,11.254 z M14.402,12.254 L11.208,12.254 L11.208,24.852 L14.402,24.852 L14.402,12.254 z" fill="#000000"/><path d="M21.844,14.537 L21.844,25.852 L16.651,25.852 L16.651,14.537 L21.844,14.537 z M20.844,15.537 L17.651,15.537 L17.651,24.852 L20.844,24.852 L20.844,15.537 z" fill="#000000"/><path d="M11.072,6.346 L11.386,7.296 L8.009,8.41 L7.695,7.461 L11.072,6.346 z" fill="#000000"/><path d="M14.658,6.404 L17.948,8.586 L17.395,9.42 L14.105,7.238 L14.658,6.404 z" fill="#000000"/><path d="M20.954,9.762 L24.491,10.717 L24.231,11.683 L20.693,10.727 L20.954,9.762 z" fill="#000000"/><path d="M6.275,6.639 C7.422,6.639 8.352,7.569 8.352,8.716 C8.352,9.863 7.422,10.792 6.275,10.792 C5.129,10.792 4.199,9.863 4.199,8.716 C4.199,7.569 5.129,6.639 6.275,6.639 z M6.275,7.639 C5.681,7.639 5.199,8.121 5.199,8.716 C5.199,9.31 5.681,9.792 6.275,9.792 C6.87,9.792 7.352,9.31 7.352,8.716 C7.352,8.121 6.87,7.639 6.275,7.639 z" fill="#000000"/><path d="M12.805,4.283 C13.952,4.283 14.882,5.213 14.882,6.359 C14.882,7.506 13.952,8.436 12.805,8.436 C11.659,8.436 10.729,7.506 10.729,6.359 C10.729,5.213 11.659,4.283 12.805,4.283 z M12.805,5.283 C12.211,5.283 11.729,5.765 11.729,6.359 C11.729,6.954 12.211,7.436 12.805,7.436 C13.4,7.436 13.882,6.954 13.882,6.359 C13.882,5.765 13.4,5.283 12.805,5.283 z" fill="#000000"/><path d="M19.247,7.436 C20.394,7.436 21.324,8.365 21.324,9.512 C21.324,10.659 20.394,11.588 19.247,11.588 C18.101,11.588 17.171,10.659 17.171,9.512 C17.171,8.365 18.101,7.436 19.247,7.436 z M19.247,8.436 C18.653,8.436 18.171,8.918 18.171,9.512 C18.171,10.106 18.653,10.588 19.247,10.588 C19.842,10.588 20.324,10.106 20.324,9.512 C20.324,8.918 19.842,8.436 19.247,8.436 z" fill="#000000"/><path d="M25.725,9.745 C26.871,9.745 27.801,10.674 27.801,11.821 C27.801,12.968 26.871,13.897 25.725,13.897 C24.578,13.897 23.648,12.968 23.648,11.821 C23.648,10.674 24.578,9.745 25.725,9.745 z M25.725,10.745 C25.13,10.745 24.648,11.227 24.648,11.821 C24.648,12.416 25.13,12.897 25.725,12.897 C26.319,12.897 26.801,12.416 26.801,11.821 C26.801,11.227 26.319,10.745 25.725,10.745 z" fill="#000000"/></g><g display="none"><path d="M8.993,11.155 L8.993,25.852 L3.799,25.852 L3.799,11.155 L8.993,11.155 z" fill="#000000"/><path d="M28.442,8.336 L28.442,25.852 L23.248,25.852 L23.248,8.336 L28.442,8.336 z" fill="#000000"/><path d="M15.522,16.853 L15.522,25.852 L10.329,25.852 L10.329,16.853 L15.522,16.853 z" fill="#000000"/><path d="M21.965,13.739 L21.965,25.852 L16.771,25.852 L16.771,13.739 L21.965,13.739 z" fill="#000000"/><path d="M8.993,4.088 L8.993,12.155 L3.799,12.155 L3.799,4.088 L8.993,4.088 z M7.993,5.088 L4.799,5.088 L4.799,11.155 L7.993,11.155 L7.993,5.088 z" fill="#000000"/><path d="M15.522,4.088 L15.522,17.853 L10.329,17.853 L10.329,4.088 L15.522,4.088 z M14.522,5.088 L11.329,5.088 L11.329,16.853 L14.522,16.853 L14.522,5.088 z" fill="#000000"/><path d="M21.965,4.088 L21.965,14.739 L16.771,14.739 L16.771,4.088 L21.965,4.088 z M20.965,5.088 L17.771,5.088 L17.771,13.739 L20.965,13.739 L20.965,5.088 z" fill="#000000"/><path d="M28.442,4.088 L28.442,9.335 L23.248,9.335 L23.248,4.088 L28.442,4.088 z M27.442,5.088 L24.248,5.088 L24.248,8.335 L27.442,8.335 L27.442,5.088 z" fill="#000000"/></g><g display="none"><g><path d="M4.179,21.44 L8.372,21.44 L8.372,25.501 L4.179,25.501 L4.179,21.44 z" fill="#000000"/><path d="M8.872,20.94 L8.872,26.001 L3.679,26.001 L3.679,20.94 L8.872,20.94 z M7.872,21.94 L4.679,21.94 L4.679,25.001 L7.872,25.001 L7.872,21.94 z" fill="#000000"/></g><g><path d="M23.628,22.84 L27.821,22.84 L27.821,25.501 L23.628,25.501 L23.628,22.84 z" fill="#000000"/><path d="M28.321,22.34 L28.321,26.001 L23.128,26.001 L23.128,22.34 L28.321,22.34 z M27.321,23.34 L24.128,23.34 L24.128,25.001 L27.321,25.001 L27.321,23.34 z" fill="#000000"/></g><g><path d="M10.708,19.732 L14.902,19.732 L14.902,25.501 L10.708,25.501 L10.708,19.732 z" fill="#000000"/><path d="M15.402,19.232 L15.402,26.001 L10.208,26.001 L10.208,19.232 L15.402,19.232 z M14.402,20.232 L11.208,20.232 L11.208,25.001 L14.402,25.001 L14.402,20.232 z" fill="#000000"/></g><g><path d="M17.151,21.953 L21.344,21.953 L21.344,25.501 L17.151,25.501 L17.151,21.953 z" fill="#000000"/><path d="M21.844,21.453 L21.844,26.001 L16.651,26.001 L16.651,21.453 L21.844,21.453 z M20.844,22.453 L17.651,22.453 L17.651,25.001 L20.844,25.001 L20.844,22.453 z" fill="#000000"/></g><path d="M8.872,11.245 L8.872,21.94 L3.679,21.94 L3.679,11.245 L8.872,11.245 z M7.872,12.245 L4.679,12.245 L4.679,20.94 L7.872,20.94 L7.872,12.245 z" fill="#000000"/><path d="M15.402,4.158 L15.402,9.159 L10.208,9.159 L10.208,4.158 L15.402,4.158 z M14.402,5.158 L11.208,5.158 L11.208,8.159 L14.402,8.159 L14.402,5.158 z" fill="#000000"/><path d="M21.844,9.286 L21.844,14.207 L16.651,14.207 L16.651,9.286 L21.844,9.286 z M20.844,10.286 L17.651,10.286 L17.651,13.207 L20.844,13.207 L20.844,10.286 z" fill="#000000"/><path d="M28.321,15.943 L28.321,23.34 L23.128,23.34 L23.128,15.943 L28.321,15.943 z M27.321,16.943 L24.128,16.943 L24.128,22.34 L27.321,22.34 L27.321,16.943 z" fill="#000000"/><path d="M8.872,8.159 L8.872,12.245 L3.679,12.245 L3.679,8.159 L8.872,8.159 z M7.872,9.159 L4.679,9.159 L4.679,11.245 L7.872,11.245 L7.872,9.159 z" fill="#000000"/><path d="M15.402,8.159 L15.402,20.232 L10.208,20.232 L10.208,8.159 L15.402,8.159 z M14.402,9.159 L11.208,9.159 L11.208,19.232 L14.402,19.232 L14.402,9.159 z" fill="#000000"/><path d="M21.844,13.207 L21.844,22.453 L16.651,22.453 L16.651,13.207 L21.844,13.207 z M20.844,14.207 L17.651,14.207 L17.651,21.453 L20.844,21.453 L20.844,14.207 z" fill="#000000"/><path d="M28.321,12.022 L28.321,16.943 L23.128,16.943 L23.128,12.022 L28.321,12.022 z M27.321,13.022 L24.128,13.022 L24.128,15.943 L27.321,15.943 L27.321,13.022 z" fill="#000000"/><path d="M25.499,16.266 L25.852,16.619 L23.805,18.667 L23.451,18.314 L25.499,16.266 z" fill="#000000"/><path d="M26.927,16.079 L27.281,16.433 L23.805,19.909 L23.451,19.556 L26.927,16.079 z" fill="#000000"/><path d="M27.645,16.668 L27.998,17.021 L23.94,21.08 L23.586,20.726 L27.645,16.668 z" fill="#000000"/><path d="M27.645,17.974 L27.998,18.328 L24.163,22.163 L23.81,21.809 L27.645,17.974 z" fill="#000000"/><path d="M27.645,19.281 L27.998,19.634 L24.583,23.05 L24.229,22.696 L27.645,19.281 z" fill="#000000"/><path d="M27.966,20.254 L28.32,20.608 L25.757,23.17 L25.403,22.817 L27.966,20.254 z" fill="#000000"/><path d="M12.579,8.669 L12.933,9.022 L10.885,11.07 L10.532,10.717 L12.579,8.669 z" fill="#000000"/><path d="M14.008,8.482 L14.362,8.836 L10.885,12.312 L10.532,11.959 L14.008,8.482 z" fill="#000000"/><path d="M14.725,8.968 L15.079,9.322 L11.021,13.38 L10.667,13.026 L14.725,8.968 z" fill="#000000"/><path d="M14.738,10.274 L15.091,10.628 L11.256,14.463 L10.903,14.109 L14.738,10.274 z" fill="#000000"/><path d="M14.738,11.581 L15.092,11.934 L11.11,15.916 L10.757,15.562 L14.738,11.581 z" fill="#000000"/><path d="M14.577,13.049 L14.931,13.402 L10.873,17.46 L10.519,17.107 L14.577,13.049 z" fill="#000000"/><path d="M14.577,14.355 L14.931,14.709 L11.096,18.544 L10.742,18.19 L14.577,14.355 z" fill="#000000"/><path d="M14.577,15.661 L14.931,16.015 L10.949,19.996 L10.596,19.643 L14.577,15.661 z" fill="#000000"/><path d="M14.738,16.861 L15.091,17.215 L12.444,19.862 L12.091,19.508 L14.738,16.861 z" fill="#000000"/><path d="M14.738,18.121 L15.091,18.475 L13.705,19.862 L13.351,19.508 L14.738,18.121 z" fill="#000000"/><path d="M6.049,11.755 L6.403,12.108 L4.355,14.156 L4.002,13.802 L6.049,11.755 z" fill="#000000"/><path d="M7.478,11.568 L7.832,11.922 L4.355,15.398 L4.002,15.045 L7.478,11.568 z" fill="#000000"/><path d="M8.195,12.054 L8.549,12.407 L4.491,16.466 L4.137,16.112 L8.195,12.054 z" fill="#000000"/><path d="M8.208,13.36 L8.562,13.714 L4.727,17.549 L4.373,17.195 L8.208,13.36 z" fill="#000000"/><path d="M8.208,14.667 L8.562,15.02 L4.58,19.002 L4.227,18.648 L8.208,14.667 z" fill="#000000"/><path d="M8.047,16.135 L8.401,16.488 L4.343,20.546 L3.989,20.193 L8.047,16.135 z" fill="#000000"/><path d="M8.047,17.441 L8.401,17.795 L4.566,21.63 L4.212,21.276 L8.047,17.441 z" fill="#000000"/><path d="M8.047,18.747 L8.401,19.101 L5.886,21.616 L5.532,21.263 L8.047,18.747 z" fill="#000000"/><path d="M8.208,19.947 L8.562,20.301 L7.233,21.63 L6.879,21.276 L8.208,19.947 z" fill="#000000"/><path d="M19.022,13.614 L19.375,13.967 L17.327,16.015 L16.974,15.661 L19.022,13.614 z" fill="#000000"/><path d="M20.45,13.53 L20.804,13.883 L17.327,17.36 L16.974,17.006 L20.45,13.53 z" fill="#000000"/><path d="M21.168,14.016 L21.521,14.369 L17.463,18.428 L17.109,18.074 L21.168,14.016 z" fill="#000000"/><path d="M21.18,15.322 L21.534,15.676 L17.699,19.511 L17.345,19.157 L21.18,15.322 z" fill="#000000"/><path d="M21.18,16.629 L21.534,16.982 L17.552,20.963 L17.199,20.61 L21.18,16.629 z" fill="#000000"/><path d="M21.019,18.121 L21.373,18.475 L17.905,21.943 L17.551,21.59 L21.019,18.121 z" fill="#000000"/><path d="M21.02,19.403 L21.373,19.756 L19.086,22.043 L18.733,21.69 L21.02,19.403 z" fill="#000000"/><path d="M20.981,20.726 L21.335,21.08 L20.284,22.13 L19.931,21.776 L20.981,20.726 z" fill="#000000"/></g><g><path d="M20.702,4.112 C21.455,4.159 21.242,3.961 21.491,4.482 C21.607,5.844 21.607,5.844 21.954,9.929 C22.074,11.346 22.03,10.83 22.085,11.476 C22.148,11.109 22.211,10.741 22.274,10.374 C22.37,9.811 23.182,9.823 23.261,10.388 C23.387,11.278 23.513,12.168 23.638,13.058 C23.903,14.933 23.804,14.232 23.935,15.161 C24.054,14.747 24.172,14.334 24.291,13.92 C24.44,13.396 25.202,13.456 25.267,13.997 C25.383,14.945 25.383,14.945 25.73,17.791 L25.757,18.008 C25.855,17.379 25.952,16.75 26.051,16.121 L26.076,16.022 C26.25,15.56 26.25,15.56 26.77,14.174 C27.291,12.787 27.291,12.787 27.464,12.325 L28.401,12.677 C28.227,13.14 28.053,13.603 27.879,14.067 C27.596,14.819 27.314,15.572 27.031,16.325 C26.892,17.216 26.753,18.107 26.615,18.998 C26.297,21.041 26.297,21.041 26.191,21.722 C26.101,22.296 25.27,22.282 25.2,21.706 C25.084,20.757 25.084,20.757 24.738,17.912 C24.606,16.836 24.661,17.284 24.573,16.566 C24.465,16.943 24.357,17.32 24.25,17.697 C24.101,18.216 23.349,18.164 23.274,17.629 C23.148,16.742 23.148,16.742 22.773,14.079 L22.719,13.701 C22.617,14.302 22.514,14.903 22.411,15.504 C22.312,16.082 21.47,16.047 21.42,15.462 C21.304,14.1 21.304,14.1 20.958,10.014 C20.822,8.417 20.881,9.113 20.78,7.925 C20.552,8.999 20.323,10.072 20.094,11.146 C19.984,11.664 19.249,11.677 19.12,11.163 C18.986,10.627 18.852,10.091 18.718,9.556 C18.525,10.454 18.632,9.956 18.398,11.049 C17.82,13.749 17.82,13.749 17.627,14.649 C17.512,15.186 16.739,15.171 16.645,14.629 C16.578,14.242 16.511,13.855 16.444,13.467 C16.256,14.329 16.367,13.82 16.111,14.996 C15.455,18.02 15.455,18.02 15.236,19.027 C15.125,19.539 14.402,19.558 14.265,19.052 C14.137,18.581 14.009,18.11 13.881,17.639 L13.772,18.15 C13.367,20.047 13.367,20.047 13.232,20.679 C13.123,21.192 12.399,21.212 12.261,20.707 C12.078,20.038 12.078,20.038 11.528,18.032 C11.287,17.151 11.407,17.59 11.168,16.716 L11.157,16.74 C10.724,17.725 10.724,17.725 10.579,18.053 C10.382,18.499 9.728,18.429 9.631,17.951 C9.541,17.505 9.45,17.059 9.359,16.613 C9.197,17.442 9.294,16.948 9.07,18.093 C8.492,21.048 8.492,21.048 8.299,22.033 C8.192,22.577 7.411,22.569 7.316,22.023 C7.215,21.444 7.114,20.866 7.014,20.287 C6.89,20.756 6.978,20.422 6.75,21.286 C6.113,23.694 6.113,23.694 5.901,24.497 C5.773,24.983 5.087,24.996 4.94,24.515 C4.842,24.194 4.899,24.383 4.767,23.948 C4.634,24.669 4.501,25.391 4.368,26.113 L3.384,25.932 C3.481,25.408 3.577,24.884 3.674,24.359 C3.834,23.489 3.995,22.619 4.155,21.749 C4.25,21.234 4.972,21.193 5.125,21.694 C5.211,21.976 5.297,22.259 5.384,22.542 C5.642,21.562 5.509,22.065 5.783,21.031 C6.419,18.623 6.419,18.623 6.631,17.821 C6.768,17.302 7.515,17.334 7.607,17.863 C7.684,18.304 7.76,18.745 7.837,19.186 C7.961,18.553 7.877,18.981 8.089,17.901 C8.667,14.946 8.667,14.946 8.86,13.961 C8.965,13.425 9.731,13.422 9.84,13.958 C9.937,14.432 9.937,14.432 10.226,15.855 L10.298,16.21 C10.472,15.814 10.646,15.419 10.82,15.023 C11.01,14.592 11.636,14.639 11.76,15.093 C11.943,15.762 11.943,15.762 12.493,17.768 C12.677,18.441 12.614,18.21 12.683,18.462 L12.794,17.941 C13.198,16.045 13.198,16.045 13.333,15.412 C13.443,14.899 14.167,14.879 14.305,15.386 C14.434,15.862 14.564,16.338 14.693,16.815 L14.917,15.784 C15.281,14.107 15.645,12.43 16.01,10.753 C16.126,10.216 16.897,10.232 16.991,10.773 C17.057,11.154 17.123,11.535 17.189,11.917 C17.292,11.435 17.216,11.794 17.42,10.84 C17.998,8.14 17.998,8.14 18.191,7.241 C18.302,6.723 19.036,6.71 19.165,7.224 C19.299,7.758 19.432,8.292 19.566,8.826 C19.695,8.218 19.614,8.6 19.81,7.679 C20.331,5.235 20.331,5.235 20.504,4.42 L20.702,4.112 z" fill="#000000"/></g><g display="none"><path d="M16.5,17.556 C17.647,17.556 18.576,18.486 18.576,19.632 C18.576,20.779 17.647,21.709 16.5,21.708 C15.353,21.709 14.424,20.779 14.424,19.632 C14.424,18.486 15.353,17.556 16.5,17.556 z M16.5,18.556 C15.906,18.556 15.424,19.038 15.424,19.632 C15.424,20.227 15.906,20.709 16.5,20.708 C17.094,20.709 17.576,20.227 17.576,19.632 C17.576,19.038 17.094,18.556 16.5,18.556 z" fill="#000000"/><path d="M10.55,21.959 C11.697,21.959 12.627,22.888 12.627,24.035 C12.627,25.182 11.697,26.112 10.55,26.111 C9.404,26.112 8.474,25.182 8.474,24.035 C8.474,22.888 9.404,21.959 10.55,21.959 z M10.55,22.959 C9.956,22.959 9.474,23.441 9.474,24.035 C9.474,24.63 9.956,25.112 10.55,25.111 C11.145,25.112 11.627,24.63 11.627,24.035 C11.627,23.441 11.145,22.959 10.55,22.959 z" fill="#000000"/><path d="M3.972,20.28 C5.119,20.28 6.049,21.209 6.049,22.356 C6.049,23.503 5.119,24.432 3.972,24.432 C2.826,24.432 1.896,23.503 1.896,22.356 C1.896,21.209 2.826,20.28 3.972,20.28 z M3.972,21.28 C3.378,21.28 2.896,21.762 2.896,22.356 C2.896,22.951 3.378,23.432 3.972,23.432 C4.567,23.432 5.049,22.951 5.049,22.356 C5.049,21.762 4.567,21.28 3.972,21.28 z" fill="#000000"/><path d="M27.836,14.403 C28.983,14.403 29.912,15.333 29.912,16.48 C29.912,17.626 28.983,18.556 27.836,18.556 C26.689,18.556 25.76,17.626 25.76,16.48 C25.76,15.333 26.689,14.403 27.836,14.403 z M27.836,15.403 C27.242,15.403 26.76,15.885 26.76,16.48 C26.76,17.074 27.242,17.556 27.836,17.556 C28.431,17.556 28.912,17.074 28.912,16.48 C28.912,15.885 28.431,15.403 27.836,15.403 z" fill="#000000"/><path d="M21.972,19.751 C23.119,19.751 24.048,20.68 24.048,21.827 C24.048,22.974 23.119,23.903 21.972,23.903 C20.825,23.903 19.896,22.974 19.896,21.827 C19.896,20.68 20.825,19.751 21.972,19.751 z M21.972,20.751 C21.378,20.751 20.896,21.232 20.896,21.827 C20.896,22.421 21.378,22.903 21.972,22.903 C22.566,22.903 23.048,22.421 23.048,21.827 C23.048,21.232 22.566,20.751 21.972,20.751 z" fill="#000000"/><path d="M16.5,5.086 C17.647,5.086 18.576,6.016 18.576,7.163 C18.576,8.309 17.647,9.239 16.5,9.239 C15.353,9.239 14.424,8.309 14.424,7.163 C14.424,6.016 15.353,5.086 16.5,5.086 z M16.5,6.086 C15.906,6.086 15.424,6.568 15.424,7.163 C15.424,7.757 15.906,8.239 16.5,8.239 C17.094,8.239 17.576,7.757 17.576,7.163 C17.576,6.568 17.094,6.086 16.5,6.086 z" fill="#000000"/><path d="M10.55,11.108 C11.697,11.108 12.627,12.037 12.627,13.184 C12.627,14.331 11.697,15.26 10.55,15.26 C9.404,15.26 8.474,14.331 8.474,13.184 C8.474,12.037 9.404,11.108 10.55,11.108 z M10.55,12.108 C9.956,12.108 9.474,12.59 9.474,13.184 C9.474,13.779 9.956,14.26 10.55,14.26 C11.145,14.26 11.627,13.779 11.627,13.184 C11.627,12.59 11.145,12.108 10.55,12.108 z" fill="#000000"/><path d="M3.972,12.545 C5.119,12.545 6.049,13.475 6.049,14.622 C6.049,15.768 5.119,16.698 3.972,16.698 C2.826,16.698 1.896,15.768 1.896,14.622 C1.896,13.475 2.826,12.545 3.972,12.545 z M3.972,13.545 C3.378,13.545 2.896,14.027 2.896,14.622 C2.896,15.216 3.378,15.698 3.972,15.698 C4.567,15.698 5.049,15.216 5.049,14.622 C5.049,14.027 4.567,13.545 3.972,13.545 z" fill="#000000"/><path d="M8.853,13.283 L9.095,14.253 L5.669,15.107 L5.428,14.136 L8.853,13.283 z" fill="#000000"/><path d="M15.164,8.367 L15.831,9.111 L11.972,12.568 L11.305,11.824 L15.164,8.367 z" fill="#000000"/><path d="M18.295,7.158 L20.615,8.29 L20.177,9.188 L17.857,8.057 L18.295,7.158 z" fill="#000000"/><path d="M26.055,6.451 L26.464,7.364 L23.753,8.579 L23.344,7.666 L26.055,6.451 z" fill="#000000"/><path d="M5.695,21.878 L9.12,22.925 L8.828,23.881 L5.402,22.834 L5.695,21.878 z" fill="#000000"/><path d="M14.645,20.365 L15.202,21.195 L11.918,23.402 L11.36,22.572 L14.645,20.365 z" fill="#000000"/><path d="M17.91,19.169 L20.593,20.32 L20.198,21.239 L17.516,20.087 L17.91,19.169 z" fill="#000000"/><path d="M27.836,3.955 C28.983,3.955 29.912,4.885 29.912,6.031 C29.912,7.178 28.983,8.108 27.836,8.108 C26.689,8.108 25.76,7.178 25.76,6.031 C25.76,4.885 26.689,3.955 27.836,3.955 z M27.836,4.955 C27.242,4.955 26.76,5.437 26.76,6.031 C26.76,6.626 27.242,7.108 27.836,7.108 C28.431,7.108 28.912,6.626 28.912,6.031 C28.912,5.437 28.431,4.955 27.836,4.955 z" fill="#000000"/><path d="M21.972,7.108 C23.119,7.108 24.048,8.037 24.048,9.184 C24.048,10.331 23.119,11.26 21.972,11.26 C20.825,11.26 19.896,10.331 19.896,9.184 C19.896,8.037 20.825,7.108 21.972,7.108 z M21.972,8.108 C21.378,8.108 20.896,8.589 20.896,9.184 C20.896,9.778 21.378,10.26 21.972,10.26 C22.566,10.26 23.048,9.778 23.048,9.184 C23.048,8.589 22.566,8.108 21.972,8.108 z" fill="#000000"/><path d="M26.519,17.332 L27.201,18.065 L23.889,21.146 L23.208,20.414 L26.519,17.332 z" fill="#000000"/></g><g display="none"><path d="M16.356,4.265 L16.356,26.794 L15.356,26.794 L15.356,4.265 L16.356,4.265 z" fill="#000000"/><path d="M25.633,23.164 L25.633,26.994 L17.752,26.994 L17.752,23.164 L25.633,23.164 z M24.633,24.164 L18.752,24.164 L18.752,25.994 L24.633,25.994 L24.633,24.164 z" fill="#000000"/><path d="M27.78,18.148 L27.78,21.978 L17.752,21.978 L17.752,18.148 L27.78,18.148 z M26.78,19.148 L18.752,19.148 L18.752,20.978 L26.78,20.978 L26.78,19.148 z" fill="#000000"/><path d="M26.478,13.395 L26.478,17.226 L17.752,17.226 L17.752,13.395 L26.478,13.395 z M25.478,14.395 L18.752,14.395 L18.752,16.226 L25.478,16.226 L25.478,14.395 z" fill="#000000"/><path d="M23.732,8.467 L23.732,12.297 L17.752,12.297 L17.752,8.467 L23.732,8.467 z M22.732,9.467 L18.752,9.467 L18.752,11.297 L22.732,11.297 L22.732,9.467 z" fill="#000000"/><path d="M20.81,3.968 L20.81,7.798 L17.752,7.798 L17.752,3.968 L20.81,3.968 z M19.81,4.968 L18.752,4.968 L18.752,6.798 L19.81,6.798 L19.81,4.968 z" fill="#000000"/><path d="M14.249,23.164 L14.249,26.994 L6.367,26.994 L6.367,23.164 L14.249,23.164 z M13.249,24.164 L7.367,24.164 L7.367,25.994 L13.249,25.994 L13.249,24.164 z" fill="#000000"/><path d="M14.249,18.148 L14.249,21.978 L4.22,21.978 L4.22,18.148 L14.249,18.148 z M13.249,19.148 L5.219,19.148 L5.219,20.978 L13.249,20.978 L13.249,19.148 z" fill="#000000"/><path d="M14.249,13.395 L14.249,17.226 L5.522,17.226 L5.522,13.395 L14.249,13.395 z M13.249,14.395 L6.522,14.395 L6.522,16.226 L13.249,16.226 L13.249,14.395 z" fill="#000000"/><path d="M14.248,8.467 L14.248,12.297 L8.268,12.297 L8.268,8.467 L14.248,8.467 z M13.248,9.467 L9.268,9.467 L9.268,11.297 L13.248,11.297 L13.248,9.467 z" fill="#000000"/><path d="M14.248,3.968 L14.248,7.798 L11.19,7.798 L11.19,3.968 L14.248,3.968 z M13.248,4.968 L12.19,4.968 L12.19,6.798 L13.248,6.798 L13.248,4.968 z" fill="#000000"/></g><text x="0" y="47" fill="#000000" font-size="5px" font-weight="bold" font-family="'Helvetica Neue', Helvetica, Arial-Unicode, Arial, Sans-serif">Created by tom</text><text x="0" y="52" fill="#000000" font-size="5px" font-weight="bold" font-family="'Helvetica Neue', Helvetica, Arial-Unicode, Arial, Sans-serif">from the Noun Project</text></svg>